<?xml version="1.0" encoding="UTF-8" standalone="no"?>
<!DOCTYPE svg PUBLIC "-//W3C//DTD SVG 1.1//EN" "http://www.w3.org/Graphics/SVG/1.1/DTD/svg11.dtd">
<svg viewBox="0 0 1100 1080" version="1.1"  xmlns="http://www.w3.org/2000/svg" xmlns:xlink="http://www.w3.org/1999/xlink">
	<g id="Feliform" stroke="#000" stroke-width="0" fill="#AABAAD" >
		<title>Feliform—Coloring Book version, by Adam Stanislav</title>
		<path id="Head" d="M550 1004.06c16.327 7.609 33.397 14.022 51.128 19.107 192.936 55.334 391.547-67.401 443.244-273.91 45.468-181.63-198.013-705.692-198.013-705.692s-157.384 111.75-296.359 240.737c-138.975-128.987-296.359-240.737-296.359-240.737s-243.481 524.062-198.013 705.692c51.697 206.509 250.308 329.244 443.244 273.91 17.731-5.085 34.801-11.498 51.128-19.107z"/>
		<path id="Mouth" stroke-width="0" fill="#91A094" d="M404.252 839.707c0 54.302 65.308 98.389 145.748 98.389 80.44 0 145.748-44.087 145.748-98.389-34.008 16.29-87.608 29.516-145.748 29.516-58.14 0-111.74-13.226-145.748-29.516z"/>
		<g id="RightEye" stroke-width="10" stroke="#C6D2C8">
			<path d="M301.573 590.714c29.344-41.814 88.03-41.814 117.373-20.907 29.345 20.907 29.345 62.721 0 104.535-20.54 31.36-73.358 62.721-117.373 83.628-44.014-20.907-96.832-52.268-117.372-83.628-29.344-41.814-29.344-83.628 0-104.535 29.343-20.907 88.029-20.907 117.372 20.907z"/>
			<!-- <ellipse  cx="301.574" cy="657.022" rx="56.223" ry="33.015"/> -->
		</g>
		<use xlink:href="#RightEye" transform="translate(496.853)"/>
		<!-- <circle id="Nose" stroke="#DADADA" cx="550" cy="732" r="62"/> -->
	</g>
</svg>
